
<svg width="319px" height="98px" viewBox="0 0 319 98" version="1.1" xmlns="http://www.w3.org/2000/svg" xmlns:xlink="http://www.w3.org/1999/xlink">
    <g id="Page-1" stroke="none" stroke-width="1" fill="none" fill-rule="evenodd">
        <g id="Logo's-samen" transform="translate(-1273.000000, -442.000000)" fill-rule="nonzero">
            <g id="logo-on-white" transform="translate(1273.000000, 442.000000)">
                <path d="M0,0 L284.072056,0 C293.421101,0 301,7.58937851 301,16.9513514 L301,98 L16.9279438,98 C7.57889857,98 0,90.4106215 0,81.0486486 L0,0 Z" id="Rectangle" fill="#000000"></path>
                <g id="2.Exitable-logo-onBlack" transform="translate(11.000000, 13.000000)">
                    <path d="M23.1670943,25.4015616 C23.1681509,22.1918219 20.4753962,19.5052603 17.2659623,19.5078953 C14.0496604,19.5052603 11.3595472,22.1902397 11.3595472,25.3999795 L11.3616604,30.024726 L23.1681509,30.0263082 L23.1670943,25.4015616 Z M11.3600755,33.3083014 L11.3606038,41.3679863 C11.3590189,44.5724521 14.0496604,47.2595411 17.2643774,47.2616507 L32.2116226,47.2590137 L32.2116226,50.4687534 L17.1909434,50.4676986 C7.6989434,50.4687534 0.00105660377,42.7835205 0,33.3088288 C0.00158490566,24.5782945 6.35283019,16.1489041 17.1904151,16.1494315 C27.2788679,16.1489041 34.3771321,24.5798767 34.3781887,33.3083014 L11.3600755,33.3083014 L11.3600755,33.3083014 Z" id="Fill-1" fill="#E7E438"></path>
                    <path d="M63.2984906,50.4666438 L55.0030943,38.4572808 L46.5576604,50.4676986 L41.6270189,50.468226 L52.5369811,34.950089 L42.3729811,20.4018356 C41.8483774,19.6560959 40.8794717,19.1334452 39.7573585,19.1339726 L39.7573585,16.896226 L53.4350943,16.8956986 L59.3388679,25.3261438 L65.2415849,16.8972808 L70.3217358,16.8978082 L61.8044528,28.9066438 L74.2095094,46.810726 C74.8070189,47.7073014 75.8541132,48.2315342 76.9762264,48.2283699 L76.9751698,50.4687534 L63.2984906,50.4666438" id="Fill-2" fill="#E7E438"></path>
                    <path d="M83.5504151,50.4687534 L83.5488302,22.491911 C83.552,20.6265068 82.1298113,19.131863 80.2643774,19.1339726 L80.2633208,16.896226 L94.7599245,16.896226 L94.7609811,50.4676986 L83.5504151,50.4687534" id="Fill-3" fill="#E7E438"></path>
                    <path d="M106.419019,34.426911 L106.417434,22.4887466 C106.417962,20.6254521 104.924981,19.0585548 103.057434,19.0585548 L103.054264,16.8941164 L106.417962,16.8946438 L106.419019,5.18431507 L117.629585,0.185643836 L117.628528,16.8978082 L125.101358,16.8951712 L125.10083,20.2520548 L117.629057,20.2499452 L117.629585,40.394411 C117.629057,44.5001986 120.99117,47.8549726 125.101358,47.8565548 L125.10083,51.2134394 C114.787849,51.2166027 106.419019,43.6769315 106.419019,34.426911" id="Fill-4" fill="#E7E438"></path>
                    <path d="M154.772377,25.995411 C154.769736,22.7904178 152.080151,20.1038562 148.865434,20.1012192 C145.654943,20.1038562 142.963245,22.7888356 142.963774,25.9985753 L142.96166,41.3664041 C142.962189,44.5740342 145.653887,47.2605959 148.869132,47.2584863 L154.772377,47.2590137 L154.772377,25.995411 Z M147.969434,50.468226 C138.703547,50.4671712 131.154113,42.9322466 131.15517,33.682226 C131.153585,24.4327329 138.704075,16.8956986 147.969962,16.8967534 L165.831321,16.8925342 L165.831321,44.9453219 C165.832906,46.8112534 167.325887,48.2283699 169.121057,48.2299521 L169.122113,50.465589 L147.969434,50.468226 L147.969434,50.468226 Z" id="Fill-5" fill="#E7E438"></path>
                    <path d="M200.357434,25.995411 C200.356906,22.7904178 197.591774,20.104911 194.378642,20.104911 C191.166038,20.104911 188.325358,22.789363 188.325358,25.9964658 L188.325358,47.2600685 L194.375472,47.2590137 C197.590717,47.2590137 200.357962,44.5756164 200.355321,41.3658767 L200.357434,25.995411 Z M194.824528,50.468226 L177.490415,50.4671712 L177.487774,5.77816438 C177.488302,3.91486986 175.994792,2.41917123 174.128302,2.42075342 L174.124604,0.183006849 L188.697283,0.18669863 L188.69834,17.9373082 C189.820453,16.9721712 192.062038,16.1504863 194.826113,16.1483767 C204.319698,16.1494315 212.013887,23.8320274 212.014943,33.3093562 C212.013887,42.7840479 204.318113,50.4671712 194.824528,50.468226 L194.824528,50.468226 Z" id="Fill-6" fill="#E7E438"></path>
                    <path d="M220.83283,34.4274384 L220.833358,5.77921918 C220.833887,3.91170548 219.41434,2.41969863 217.545208,2.42128082 L217.544151,0.183534247 L232.043396,0.183534247 L232.042868,40.3970479 C232.043925,44.498089 235.405509,47.8555 239.516226,47.8570822 L239.515698,51.2134384 C229.202717,51.2144932 220.831245,43.6769315 220.83283,34.4274384" id="Fill-7" fill="#E7E438"></path>
                    <path d="M266.495019,25.402089 C266.492377,22.1923493 263.802792,19.5057877 260.587547,19.5057877 C257.377057,19.5063151 254.685887,22.1907671 254.683774,25.4005068 L254.685358,30.0252534 L266.494491,30.024726 L266.495019,25.402089 Z M254.686415,33.3088288 L254.685887,41.3664041 C254.686415,44.5735068 257.378113,47.2600685 260.588604,47.2574315 L275.534264,47.2621781 L275.536906,50.4671712 L260.51517,50.468226 C251.02634,50.4671712 243.32317,42.7840479 243.326339,33.3093562 C243.323698,24.5809315 249.67917,16.1494315 260.512,16.1473219 C270.604151,16.1494315 277.702943,24.5804041 277.705585,33.3088288 L254.686415,33.3088288 L254.686415,33.3088288 Z" id="Fill-8" fill="#E7E438"></path>
                    <path d="M9.36520809,73.3298425 C9.36573585,74.3851644 8.98060377,75.2490411 8.21245283,75.9198904 C7.38301887,76.6403151 6.22392453,76.9994726 4.73516981,77 C3.40120755,76.9994726 2.32083019,76.7531781 1.49139623,76.2621712 L1.97743396,74.3197671 C2.86709434,74.8239589 3.83441509,75.0744726 4.87886792,75.075 C5.55139623,75.075 6.07071698,74.9352397 6.43735849,74.6525548 C6.804,74.3709247 6.98679245,73.9901438 6.98732075,73.5102123 C6.98732075,73.0671986 6.82777358,72.7006575 6.50920755,72.4126986 C6.19064151,72.1257945 5.65388679,71.8367808 4.89683019,71.5482945 C2.74664151,70.757726 1.67154717,69.5832123 1.67154717,68.0247534 C1.67154717,67.0052945 2.06513208,66.1646233 2.85124528,65.5048493 C3.63788679,64.8461301 4.68656604,64.5165068 5.99569811,64.5159795 C7.12520755,64.5165068 8.08671698,64.7148082 8.87916981,65.1103562 L8.33607547,66.9805068 C7.60067925,66.6086918 6.79871698,66.4219932 5.93018868,66.4225205 C5.30415094,66.4219932 4.8154717,66.5670274 4.46626415,66.8544589 C4.16460377,67.1076096 4.01403774,67.4235205 4.01403774,67.8074658 C4.01456604,68.227274 4.19471698,68.5816849 4.55660377,68.8696438 C4.85773585,69.1096096 5.43041509,69.3970411 6.27358491,69.7329932 C8.33449057,70.5362192 9.36520809,71.7360479 9.36520809,73.3298425" id="Fill-9" fill="#FFFFFF"></path>
                    <polyline id="Fill-10" fill="#FFFFFF" points="22.2843019 66.6566849 18.933283 66.6566849 18.933283 76.8191027 16.5907925 76.8196301 16.5913208 66.6572123 13.2572075 66.6566849 13.2577358 64.6952945 22.2848302 64.6952945 22.2843019 66.6566849"></polyline>
                    <path d="M32.5735094,68.2309658 C32.5729811,66.99 31.8280755,66.3692534 30.3387925,66.368726 C29.7502642,66.368726 29.3170566,66.3982603 29.041283,66.4578562 L29.0418113,70.1644041 L30.2484528,70.1638767 C30.9695849,70.1644041 31.5369811,69.9882534 31.9516981,69.6370068 C32.3653585,69.2847055 32.5735094,68.8163767 32.5735094,68.2309658 Z M35.3476226,76.8191027 L32.9517736,76.8196301 C32.7351698,76.425137 32.4646792,75.4710753 32.1408302,73.9606096 C31.9723019,73.180589 31.7319245,72.6400068 31.4202264,72.3415 C31.1069434,72.041411 30.6515472,71.8911027 30.0503396,71.8911027 L29.0418113,71.8911027 L29.0418113,76.8196301 L26.7352453,76.8191027 L26.734717,64.8577329 C27.6856604,64.6889658 28.8114717,64.6061644 30.1116226,64.6061644 C31.8333585,64.6061644 33.0796226,64.9299863 33.8498868,65.5771027 C34.5599245,66.1530205 34.9154717,66.9747055 34.9154717,68.0421575 C34.9154717,68.7620548 34.6914717,69.4033699 34.2429434,69.9661027 C33.8430189,70.4713493 33.3411321,70.8289247 32.7346415,71.0462123 L32.7351698,71.0994795 C33.5281509,71.412226 34.0802264,72.1911918 34.3924528,73.4374315 C34.7173585,74.7216438 34.8916981,75.4109521 34.9154717,75.5069384 C35.0956226,76.1777877 35.2398491,76.6171096 35.3476226,76.8191027 L35.3476226,76.8191027 Z" id="Fill-11" fill="#FFFFFF"></path>
                    <path d="M45.9057358,71.7286644 L45.0229434,68.8696438 C44.962717,68.6776712 44.7646038,67.9050342 44.4291321,66.5490959 L44.3741887,66.5490959 C44.2664151,67.0780753 44.0804528,67.8507123 43.8157736,68.8696438 L42.9689057,71.7286644 L45.9057358,71.7286644 Z M49.7982642,76.8191027 L47.2930566,76.8191027 L46.2670943,73.4922808 L42.5901132,73.4928082 L41.636,76.8196301 L39.2211321,76.8191027 L43.0053585,64.6952945 L45.9775849,64.6947671 L49.7982642,76.8191027 L49.7982642,76.8191027 Z" id="Fill-12" fill="#FFFFFF"></path>
                    <polyline id="Fill-13" fill="#FFFFFF" points="60.933283 66.6566849 57.5817358 66.6566849 57.5822642 76.8191027 55.2397736 76.8196301 55.2392453 66.6566849 51.9061887 66.6566849 51.9061887 64.6952945 60.933283 64.6952945 60.933283 66.6566849"></polyline>
                    <polyline id="Fill-14" fill="#FFFFFF" points="72.6821887 76.8191027 65.3842264 76.8191027 65.3836981 64.6952945 72.4116981 64.6952945 72.4111698 66.6202945 67.7261887 66.6197671 67.726717 69.5890137 72.1586415 69.5890137 72.1591698 71.4960822 67.7261887 71.4960822 67.726717 74.8951575 72.6816604 74.8956849 72.6821887 76.8191027"></polyline>
                    <path d="M87.2575094,76.2801027 C86.0207547,76.7231164 84.7353962,76.9451507 83.4019623,76.9446242 C81.3838491,76.9451507 79.8221887,76.4124795 78.7169811,75.3445 C77.5753208,74.2649178 77.0110943,72.7787123 77.0232453,70.883774 C77.0232453,68.9529726 77.6482264,67.405589 78.8971321,66.2432055 C80.1222642,65.1277603 81.7256604,64.5703014 83.7078491,64.5703014 C85.041283,64.5708288 86.0984151,64.7554178 86.8792453,65.1272329 L86.374717,67.0168973 C85.6181887,66.6804178 84.722717,66.5121781 83.6904151,66.5121781 C82.4288302,66.5121781 81.4197736,66.8723904 80.6632453,67.5917603 C79.8702642,68.3469932 79.4740377,69.4028425 79.4740377,70.757726 C79.4740377,72.1004795 79.8406792,73.1510548 80.573434,73.9057603 C81.3056604,74.6604658 82.2729811,75.0386096 83.4738113,75.0386096 C84.1827925,75.0386096 84.6867925,74.9737397 84.9873962,74.8408356 L84.9873962,71.9085068 L82.9872453,71.9085068 L82.9872453,70.0736918 L87.2575094,70.0736918 L87.2575094,76.2801027" id="Fill-15" fill="#FFFFFF"></path>
                    <polyline id="Fill-16" fill="#FFFFFF" points="94.8074717 76.8185753 92.4649811 76.8191027 92.4649811 64.6947671 94.8069434 64.6947671 94.8074717 76.8185753"></polyline>
                    <path d="M107.654717,73.3293151 C107.654717,74.3841096 107.270113,75.2485137 106.501962,75.919363 C105.672528,76.6397877 104.513434,76.9989452 103.024151,76.9994726 C101.690717,76.9994726 100.609811,76.7526507 99.7809057,76.2616438 L100.266943,74.3192397 C101.156075,74.8229041 102.122868,75.0744726 103.168377,75.0744726 C103.840377,75.0744726 104.360226,74.9347123 104.726868,74.6525548 C105.092981,74.3703973 105.276302,73.9896164 105.27683,73.5096849 C105.276302,73.0661438 105.116755,72.7001301 104.798717,72.4121712 C104.480151,72.1252671 103.943396,71.8362534 103.18634,71.5482945 C101.036151,70.757726 99.9615849,69.5826849 99.9610566,68.024226 C99.9615849,67.0047671 100.354113,66.1651507 101.140755,65.5043219 C101.927396,64.8456027 102.976075,64.5159795 104.285208,64.5165058 C105.414717,64.5159795 106.375698,64.7137534 107.168151,65.1098288 L106.625585,66.9799795 C105.890189,66.6081644 105.088226,66.4219932 104.219698,66.4214658 C103.59366,66.4219932 103.104981,66.5665 102.755774,66.8549863 C102.454113,67.1070822 102.303547,67.4240479 102.303547,67.8079932 C102.303547,68.227274 102.484226,68.5816849 102.846113,68.8696438 C103.146717,69.1090822 103.719396,69.3970411 104.563094,69.7324658 C106.624528,70.5356918 107.654717,71.7355205 107.654717,73.3293151" id="Fill-17" fill="#FFFFFF"></path>
                    <path d="M121.275925,65.0375753 L120.771396,66.8897945 C120.09834,66.5902329 119.34234,66.4393973 118.501811,66.4399247 C117.299925,66.4399247 116.332604,66.8069932 115.600906,67.5374384 C114.831698,68.3053288 114.447094,69.3907123 114.447094,70.7930616 C114.447094,72.113137 114.804755,73.1531644 115.519547,73.9152534 C116.233811,74.6762877 117.222264,75.0565411 118.483321,75.0565411 C119.396226,75.0565411 120.164906,74.9194178 120.789887,74.6425342 L121.167623,76.4773493 C120.45917,76.8249041 119.443774,76.9989452 118.123547,76.9994726 C116.213208,76.9994726 114.714415,76.4446507 113.62717,75.3350068 C112.539925,74.2258904 111.99683,72.7491781 111.99683,70.9011781 C111.997358,68.9360959 112.614943,67.3639247 113.852226,66.189411 C115.029811,65.072911 116.549208,64.5159795 118.411472,64.5154521 C119.672,64.5159795 120.62717,64.6889658 121.275925,65.0375753" id="Fill-18" fill="#FFFFFF"></path>
                    <polyline id="Fill-19" fill="#FFFFFF" points="135.528453 76.8185753 133.187019 76.8191027 133.185962 71.5477671 128.375774 71.5482945 128.375774 76.8191027 126.033283 76.8191027 126.033283 64.6952945 128.375774 64.6952945 128.375774 69.5167603 133.185962 69.5167603 133.187547 64.6947671 135.528453 64.6947671 135.528453 76.8185753"></polyline>
                    <polygon id="Fill-20" fill="#FFFFFF" points="148.249434 76.8185753 150.592981 76.8185753 150.592981 64.6947671 148.249434 64.6947671"></polygon>
                    <path d="M165.638491,76.8191027 L163.223623,76.8185753 L160.26883,71.6748699 C159.403472,70.1517466 158.700302,68.7551986 158.159321,67.4836438 L158.105962,67.5015753 C158.189434,68.9418973 158.23117,70.6791438 158.23117,72.7180616 L158.232226,76.8191027 L156.087849,76.8185753 L156.087849,64.6947671 L158.735698,64.6947671 L161.656151,69.7145342 C162.387321,70.9850342 163.054566,72.3409726 163.656302,73.7797123 L163.690113,73.7623082 C163.559623,72.3583767 163.494113,70.6685959 163.493585,68.6887466 L163.494113,64.6947671 L165.638491,64.6947671 L165.638491,76.8191027" id="Fill-21" fill="#FFFFFF"></path>
                    <polyline id="Fill-22" fill="#FFFFFF" points="179.116 66.6561575 175.762868 66.6561575 175.763396 76.8185753 173.421962 76.8191027 173.421434 66.6566849 170.087321 66.6561575 170.088377 64.6947671 179.114415 64.6947671 179.116 66.6561575"></polyline>
                    <polyline id="Fill-23" fill="#FFFFFF" points="190.863321 76.8185753 183.566415 76.8185753 183.566415 64.6947671 190.59283 64.6947671 190.593887 66.6197671 185.906792 66.6192397 185.907321 69.5884863 190.34083 69.5884863 190.340302 71.4955548 185.907321 71.4955548 185.906792 74.8946301 190.862792 74.8951575 190.863321 76.8185753"></polyline>
                    <path d="M201.639094,68.2304384 C201.638038,66.9894726 200.894189,66.3681986 199.402792,66.3681986 C198.813736,66.3681986 198.382642,66.3977329 198.10634,66.4568014 L198.10634,70.1633493 L199.312981,70.1633493 C200.034642,70.1633493 200.602038,69.987726 201.016755,69.6359521 C201.429358,69.2841781 201.636981,68.8158493 201.639094,68.2304384 Z M204.413208,76.8191027 L202.01683,76.8185753 C201.800226,76.4235548 201.529736,75.4700205 201.205358,73.9600822 C201.037358,73.1800616 200.797509,72.6394795 200.485283,72.3404452 C200.170943,72.0408836 199.716075,71.8900479 199.115396,71.8900479 L198.105811,71.8900479 L198.10634,76.8185753 L195.800302,76.8185753 L195.799245,64.8572055 C196.750717,64.6884384 197.876,64.605637 199.177208,64.605637 C200.898415,64.605637 202.145208,64.9294589 202.916,65.5765753 C203.624453,66.1524932 203.98,66.9741781 203.981057,68.0421575 C203.981057,68.7615274 203.754943,69.4028425 203.307472,69.9655753 C202.908604,70.4702945 202.405132,70.8283973 201.800226,71.0451575 L201.799698,71.0984247 C202.593208,71.4111712 203.145811,72.1906644 203.458038,73.4374315 C203.782415,74.720589 203.95517,75.4104247 203.981057,75.5069384 C204.161736,76.1777877 204.304906,76.6160548 204.413208,76.8191027 L204.413208,76.8191027 Z" id="Fill-24" fill="#FFFFFF"></path>
                    <path d="M214.971849,71.7276096 L214.089057,68.8691164 C214.027774,68.6771438 213.828604,67.9039795 213.49366,66.5485685 L213.438717,66.5485685 C213.330415,67.0770205 213.144981,67.8501849 212.880302,68.8691164 L212.034491,71.728137 L214.971849,71.7276096 Z M218.862264,76.8185753 L216.357057,76.8185753 L215.330038,73.4917534 L211.654642,73.491226 L210.701057,76.8185753 L208.28566,76.8185753 L212.070943,64.6947671 L215.041585,64.6947671 L218.862264,76.8185753 L218.862264,76.8185753 Z" id="Fill-25" fill="#FFFFFF"></path>
                    <path d="M231.819396,65.0370479 L231.313283,66.8897945 C230.640755,66.5897055 229.883698,66.4393973 229.04317,66.4393973 C227.841811,66.4393973 226.875019,66.8064658 226.143321,67.536911 C225.374113,68.3048014 224.989509,69.3907123 224.989509,70.7925342 C224.988981,72.113137 225.347698,73.152637 226.062491,73.914726 C226.775698,74.6752329 227.764679,75.0560137 229.025208,75.0565411 C229.937057,75.0560137 230.706792,74.918363 231.331774,74.6425342 L231.710038,76.4773493 C231.001057,76.8243767 229.985132,76.9989452 228.664906,76.998419 C226.755623,76.9989452 225.255245,76.4435959 224.169057,75.3344795 C223.082868,74.2248356 222.538189,72.7481233 222.53766,70.9001233 C222.538717,68.9350411 223.157887,67.3639247 224.39517,66.1888836 C225.572226,65.072911 227.090566,64.5154521 228.954415,64.5154521 C230.215472,64.5159795 231.170113,64.6884384 231.819396,65.0370479" id="Fill-26" fill="#FFFFFF"></path>
                    <polyline id="Fill-27" fill="#FFFFFF" points="244.537736 66.6561575 241.187245 66.6561575 241.188302 76.8185753 238.844755 76.8185753 238.84634 66.6561575 235.512226 66.6561575 235.513283 64.6947671 244.538792 64.6947671 244.537736 66.6561575"></polyline>
                    <polygon id="Fill-28" fill="#FFFFFF" points="248.988679 76.8185753 251.332755 76.8185753 251.332755 64.6942397 248.988679 64.6942397"></polygon>
                    <polyline id="Fill-29" fill="#FFFFFF" points="264.124528 76.8185753 256.827094 76.8185753 256.827623 64.6942397 263.854038 64.6947671 263.855094 66.6192397 259.169585 66.6192397 259.170642 69.5879589 263.601509 69.5884863 263.600981 71.4955548 259.170113 71.4955548 259.170113 74.8946301 264.125585 74.8946301 264.124528 76.8185753"></polyline>
                    <polyline id="Fill-30" fill="#FFFFFF" points="276.053057 66.6192397 271.403472 66.6192397 271.402943 69.8395274 275.729736 69.8395274 275.728151 71.7276096 271.404 71.7276096 271.405057 76.8185753 269.060981 76.8185753 269.061509 64.6942397 276.052 64.6947671 276.053057 66.6192397"></polyline>
                    <polyline id="Fill-31" fill="#E7E438" points="296.065132 35.2744384 296.063019 5.18273288 307.274642 0.184589041 307.273057 35.3203219 296.065132 35.2744384"></polyline>
                    <polyline id="Fill-32" fill="#E7E438" points="296.274868 51.2698699 296.275925 40.0785 307.483849 40.0795548 307.484906 51.2709247 296.274868 51.2698699"></polyline>
                    <polyline id="Fill-33" fill="#FFFFFF" points="83.5509434 11.3743767 83.5504151 0.185116438 94.7599245 0.184061644 94.7615094 11.3754315 83.5509434 11.3743767"></polyline>
                </g>
            </g>
        </g>
    </g>
</svg>