
<svg width="785px" height="580px" viewBox="0 0 785 580" version="1.1" xmlns="http://www.w3.org/2000/svg" xmlns:xlink="http://www.w3.org/1999/xlink">
    <g id="Page-1" stroke="none" stroke-width="1" fill="none" fill-rule="evenodd">
        <g id="Logo's-bovenkant" transform="translate(-1087.000000, -269.000000)" fill-rule="nonzero">
            <g id="ketjapp" transform="translate(1087.000000, 269.000000)">
                <path d="M230,152.902016 C230,152.902016 231.429952,149.327437 240.724638,143.60811 C269.323671,129.309795 271.468599,94.2789204 290.057971,72.1165307 C292.917874,67.1121202 301.497585,71.4016149 306.502415,77.1209413 C309.362319,79.9806045 312.937198,79.2656887 316.512077,77.8358571 C327.951691,72.1165307 339.391304,67.827036 350.830918,66.3972044 C374.425121,62.1077096 398.019324,68.5419518 421.613527,74.2612781 C426.618357,75.6911097 430.908213,76.4060255 435.913043,77.1209413 C442.347826,79.2656887 448.782609,82.1253519 453.78744,82.1253519 C476.666667,81.4104361 500.26087,88.5595941 509.555556,111.4369 C510.985507,115.726394 513.845411,120.015889 515.990338,123.590468 C523.855072,135.029121 526,144.323026 526,144.323026 C526,144.323026 500.26087,212.954943 380.859903,218.674269 C261.458937,224.393596 230,152.902016 230,152.902016" id="Path" fill="#FFCF2B"></path>
                <polygon id="Path" fill="#E2231A" points="5 547.733333 22 547 22 550.666667 9.43478261 551.4 10.173913 560.933333 22 560.2 22 564.6 10.173913 564.6 10.9130435 579.266667 6.47826087 580"></polygon>
                <polygon id="Path" fill="#E2231A" points="34 547 38.3846154 547 39.1153846 573.772727 53 573.068182 53 577.295455 34.7307692 578"></polygon>
                <path d="M78.9772727,546 L83.9090909,546 L98,576.295455 L93.0681818,576.295455 L89.5454545,568.545455 L74.75,569.25 L71.9318182,577 L67,577 L78.9772727,546 Z M81.0909091,550.227273 L75.4545455,565.727273 L87.4318182,565.022727 L81.0909091,550.227273 Z" id="Shape" fill="#E2231A"></path>
                <polygon id="Path" fill="#E2231A" points="121.756098 576.266667 116.292683 577 104 545.466667 108.780488 544.733333 119.02439 572.6 119.02439 572.6 127.219512 544 132 544"></polygon>
                <path d="M158.732429,541.050411 C168.308507,540.319318 174.201479,547.630246 174.9381,557.134454 C175.674721,566.638661 169.78175,573.949589 160.205671,573.949589 C150.629593,574.680682 144.736621,567.369754 144,557.865546 C144,548.361339 149.15635,541.050411 158.732429,541.050411 M160.205671,570.294125 C167.571886,570.294125 170.518371,563.714289 170.518371,557.134454 C170.518371,550.554618 166.835264,544.705875 159.46905,544.705875 C152.102836,544.705875 149.15635,551.285711 149.15635,557.865546 C149.15635,564.445382 152.839457,570.294125 160.205671,570.294125" id="Shape" fill="#E2231A"></path>
                <path d="M215,557.333333 C215,566.133333 211.428571,571.266667 203.571429,572 C195.714286,572 191.428571,567.6 190.714286,558.8 L190,539.733333 L194.285714,539.733333 L195,558.066667 C195,563.933333 197.142857,568.333333 202.857143,568.333333 C208.571429,568.333333 210,563.933333 210,557.333333 L209.285714,539 L213.571429,539 L215,557.333333 Z" id="Path" fill="#E2231A"></path>
                <path d="M230,539 L237.90625,539 C244.375,539 250.125,539.738095 250.125,547.119048 C250.125,550.809524 247.25,553.761905 243.65625,554.5 L243.65625,554.5 C245.09375,555.238095 245.8125,555.97619 246.53125,557.452381 L253,570 L247.96875,570 L242.9375,558.928571 C241.5,555.97619 240.0625,555.97619 237.90625,555.97619 L235.03125,555.97619 L235.75,570 L231.4375,570 L230,539 Z M235.03125,552.285714 L238.625,552.285714 C242.9375,552.285714 245.09375,550.071429 245.09375,547.119048 C245.09375,544.166667 242.9375,542.690476 238.625,542.690476 L234.3125,542.690476 L235.03125,552.285714 Z" id="Shape" fill="#E2231A"></path>
                <polygon id="Path" fill="#E2231A" points="266 538.704545 283.592593 538 283.592593 541.522727 270.925926 542.227273 270.925926 551.386364 282.888889 550.681818 282.888889 554.909091 271.62963 554.909091 271.62963 565.477273 284.296296 564.772727 285 569 267.407407 569"></polygon>
                <path d="M301,538 L310.467133,538 C319.934267,538 327.944918,542.931818 327.944918,552.795455 C328.673159,563.363636 322.11899,569 311.923615,569 L302.456482,569 L301,538 Z M306.825928,564.772727 L311.923615,564.772727 C319.934267,564.772727 324.303713,560.545455 323.575472,552.795455 C323.575472,545.75 317.749544,541.522727 311.195374,541.522727 L306.097687,541.522727 L306.825928,564.772727 Z" id="Shape" fill="#E2231A"></path>
                <path d="M365,533 L373.8,533 C380.4,533 384.8,534.44186 385.533333,540.209302 C385.533333,544.534884 383.333333,546.697674 378.933333,548.139535 L378.933333,548.139535 C383.333333,548.139535 386.266667,551.023256 387,555.348837 C387,561.837209 381.866667,564 375.266667,564 L366.466667,564 L365,533 Z M370.133333,545.976744 L372.333333,545.976744 C376.733333,545.976744 380.4,545.255814 380.4,540.930233 C380.4,537.325581 376.733333,536.604651 374.533333,536.604651 L369.4,536.604651 L370.133333,545.976744 Z M370.866667,560.395349 L374.533333,560.395349 C378.933333,560.395349 382.6,558.953488 381.866667,555.348837 C381.866667,550.302326 377.466667,550.302326 373.066667,550.302326 L370.133333,550.302326 L370.866667,560.395349 Z" id="Shape" fill="#E2231A"></path>
                <path d="M426,550.333333 C426,559.133333 422.428571,564.266667 414.571429,565 C406.714286,565 402.428571,560.6 401.714286,551.8 L401,532.733333 L405.285714,532.733333 L406,551.066667 C406,556.933333 408.142857,561.333333 413.857143,561.333333 C419.571429,561.333333 421,556.933333 421,550.333333 L420.285714,532 L424.571429,532 L426,550.333333 Z" id="Path" fill="#E2231A"></path>
                <path d="M457.481481,536.227273 C455.37037,535.522727 453.962963,534.818182 451.851852,534.818182 C449.037037,534.818182 446.222222,536.227273 446.925926,539.045455 C446.925926,544.681818 460.296296,543.272727 461,553.136364 C461,559.477273 456.074074,562.295455 450.444444,563 C448.333333,563 446.222222,562.295455 444.111111,562.295455 L444.111111,558.068182 C445.518519,558.772727 448.333333,559.477273 450.444444,559.477273 C453.259259,559.477273 456.777778,558.068182 456.074074,554.545455 C456.074074,547.5 442.703704,550.318182 442,540.454545 C442,534.818182 446.222222,532 451.851852,532 C453.962963,532 456.074074,532 458.185185,532.704545 L457.481481,536.227273 Z" id="Path" fill="#E2231A"></path>
                <polygon id="Rectangle" fill="#E2231A" transform="translate(476.735917, 545.769502) rotate(-2.185224) translate(-476.735917, -545.769502) " points="476.73651 530.053541 476.73651 530.053541 476.735324 561.485462 476.735324 561.485462"></polygon>
                <polygon id="Path" fill="#E2231A" points="495 529.466667 501.25 528.733333 515.138889 554.4 515.833333 554.4 514.444444 528.733333 518.611111 528 520 560.266667 514.444444 560.266667 499.861111 534.6 499.861111 534.6 500.555556 561 496.388889 561"></polygon>
                <polygon id="Path" fill="#E2231A" points="537 526.733333 554.538462 526 554.538462 530.4 541.384615 531.133333 542.115385 539.933333 553.807692 539.933333 554.538462 543.6 542.115385 544.333333 542.115385 554.6 556 554.6 556 558.266667 537.730769 559"></polygon>
                <path d="M585.481481,531.227273 C583.37037,530.522727 581.962963,529.818182 579.851852,529.818182 C577.037037,529.818182 574.222222,531.227273 574.925926,534.045455 C574.925926,539.681818 588.296296,538.272727 589,548.136364 C589,554.477273 584.074074,557.295455 578.444444,558 C576.333333,558 574.222222,557.295455 572.111111,557.295455 L572.111111,553.068182 C573.518519,553.772727 576.333333,554.477273 578.444444,554.477273 C581.259259,554.477273 584.777778,553.068182 584.074074,549.545455 C584.074074,542.5 570.703704,545.318182 570,535.454545 C570,529.818182 574.222222,527 579.851852,527 C581.962963,527 584.074074,527 586.185185,527.704545 L585.481481,531.227273 Z" id="Path" fill="#E2231A"></path>
                <path d="M615.481481,531.227273 C613.37037,530.522727 611.962963,529.818182 609.851852,529.818182 C607.037037,529.818182 604.222222,531.227273 604.925926,534.045455 C604.925926,539.681818 618.296296,538.272727 619,548.136364 C619,554.477273 614.074074,557.295455 608.444444,558 C606.333333,558 604.222222,557.295455 602.111111,557.295455 L602.111111,553.068182 C603.518519,553.772727 606.333333,554.477273 608.444444,554.477273 C611.259259,554.477273 614.777778,553.068182 614.074074,549.545455 C614.074074,542.5 600.703704,545.318182 600,535.454545 C600,529.818182 604.222222,527 609.851852,527 C611.962963,527 614.074074,527 616.185185,527.704545 L615.481481,531.227273 Z" id="Path" fill="#E2231A"></path>
                <path d="M666.977273,522 L671.909091,522 L686,552.295455 L681.068182,552.295455 L677.545455,544.545455 L662.75,545.25 L659.931818,553 L655,553 L666.977273,522 Z M669.090909,526.227273 L663.454545,541.727273 L675.431818,541.022727 L669.090909,526.227273 Z" id="Shape" fill="#E2231A"></path>
                <path d="M697,522 L704.464286,522 C710.571429,522 716,524.162791 716,530.651163 C716,537.860465 711.25,540.023256 705.821429,540.744186 L701.75,540.744186 L702.428571,553 L698.357143,553 L697,522 Z M701.75,536.418605 L705.821429,536.418605 C708.535714,536.418605 711.928571,534.976744 711.25,530.651163 C711.25,526.325581 707.178571,525.604651 704.464286,525.604651 L701.071429,525.604651 L701.75,536.418605 Z" id="Shape" fill="#E2231A"></path>
                <path d="M732,521 L739.464286,521 C745.571429,521 751,523.162791 751,529.651163 C751,536.860465 746.25,539.023256 740.821429,539.744186 L736.75,539.744186 L737.428571,552 L733.357143,552 L732,521 Z M736.75,535.418605 L740.821429,535.418605 C743.535714,535.418605 746.928571,533.976744 746.25,529.651163 C746.25,525.325581 742.178571,524.604651 739.464286,524.604651 L736.071429,524.604651 L736.75,535.418605 Z" id="Shape" fill="#E2231A"></path>
                <path d="M781.481481,523.227273 C779.37037,522.522727 777.962963,521.818182 775.851852,521.818182 C773.037037,521.818182 770.222222,523.227273 770.925926,526.045455 C770.925926,531.681818 784.296296,530.272727 785,540.136364 C785,546.477273 780.074074,549.295455 774.444444,550 C772.333333,550 770.222222,549.295455 768.111111,549.295455 L768.111111,545.068182 C769.518519,545.772727 772.333333,546.477273 774.444444,546.477273 C777.259259,546.477273 780.777778,545.068182 780.074074,541.545455 C780.074074,534.5 766.703704,537.318182 766,527.454545 C766,521.818182 770.222222,519 775.851852,519 C777.962963,519 780.074074,519 782.185185,519.704545 L781.481481,523.227273 Z" id="Path" fill="#E2231A"></path>
                <path d="M55.8050706,417.212903 C64.2484041,407.903226 73.3953487,395.729032 71.2845154,391.432258 C71.2845154,390.716129 70.5809042,390 68.4700708,390 C62.8411818,390 48.7689593,401.458065 36.103959,415.064516 C30.47507,421.509677 25.5497921,425.090323 21.3281254,425.090323 C16.4028475,425.090323 15.6992364,420.793548 15.6992364,416.496774 C14.9956252,404.322581 12.1811807,391.432258 6.55229171,392.148387 C0.219791566,392.148387 -0.483819561,421.509677 0.219791566,441.56129 L0.923402692,452.303226 C1.62701382,471.63871 5.14506945,501 11.4775696,501 C17.1064586,501 19.217292,486.677419 19.217292,473.787097 C19.217292,470.206452 19.9209031,463.76129 24.846181,463.76129 C29.0678478,463.76129 34.6967368,467.341935 41.0292369,473.787097 C55.1014594,488.109677 70.5809042,498.851613 76.9134044,498.851613 C79.0242377,498.851613 79.0242377,498.851613 79.7278489,498.135484 C81.8386823,493.122581 71.2845154,479.516129 61.4339596,469.490323 C44.5472925,453.735484 43.1400703,430.819355 55.8050706,417.212903" id="Path" fill="#1E1E1C"></path>
                <path d="M164.448157,401.342883 C176.161733,400.620444 187.87531,397.730686 187.87531,392.67361 C187.87531,386.894094 168.840748,385.449215 156.395073,386.171655 C138.824708,386.894094 125.646934,409.289717 127.111131,436.742416 L127.843229,447.579008 C128.575328,475.031707 143.949397,496.704891 161.519762,495.982451 C173.965438,495.260012 193,492.370254 193,487.313178 C193,482.256102 180.554325,480.088783 168.840748,480.088783 C157.127171,480.811223 146.877792,473.586828 146.877792,464.195115 C146.877792,454.803403 154.930876,447.579008 165.912354,446.856569 C176.161733,446.134129 187.143212,443.244371 187.143212,438.187295 C187.143212,433.130219 175.429635,430.962901 165.180255,430.962901 C154.198777,431.68534 145.413594,425.183385 144.681496,417.236551 C143.217299,408.567278 152.002481,402.065323 164.448157,401.342883" id="Path" fill="#1E1E1C"></path>
                <path d="M275.136752,382.225598 C260.606838,382.947798 233,385.114398 233,391.614198 C233,396.669599 242.444444,398.836199 251.162393,398.836199 C259.880342,398.836199 267.871795,419.057799 268.598291,444.334799 C269.324786,463.8342 272.957265,492 279.495726,492 C286.034188,492 287.487179,463.112 286.760684,443.612599 C286.034188,419.057799 292.57265,397.391799 300.564103,397.391799 C309.282051,397.391799 318,393.780798 318,388.725398 C318,382.225598 290.393162,381.503398 275.136752,382.225598" id="Path" fill="#1E1E1C"></path>
                <path d="M396.755952,378.015441 C390.260417,378.015441 389.53869,407.372647 390.260417,427.42147 L390.982143,453.198529 C391.703869,467.519118 387.373512,473.247353 375.104167,473.247353 C371.495536,473.247353 368.608631,473.247353 365.721726,471.815294 L365,471.815294 L365,473.247353 C365,481.123676 369.330357,487.567941 373.660714,489 L402.529762,488.283971 L402.529762,487.567941 C405.416666,471.099265 407.581845,440.31 406.860119,418.113088 C406.860119,401.644412 403.251488,377.299411 396.755952,378.015441" id="Path" fill="#1E1E1C"></path>
                <path d="M636.618253,368.398551 C624.447311,366.975155 614.424183,369.821946 610.128556,369.821946 C600.821366,369.821946 595.809802,395.443064 597.241677,418.929089 L597.957615,429.604555 C598.673553,448.820393 602.253241,478 608.696681,478 C614.424183,478 616.571996,466.612836 616.571996,455.225673 C615.856058,443.838509 622.299498,434.586439 629.458875,434.586439 C653.800758,433.874741 666.687638,421.064182 665.9717,400.424948 L665.9717,375.515528 L665.255762,375.515528 C655.232634,374.092133 645.209506,369.821946 636.618253,368.398551 M631.606689,418.929089 L618.719809,419.640787 C615.856058,408.253623 612.992307,396.154762 612.992307,391.884576 C612.992307,389.037785 620.151685,385.479296 630.174813,384.767598 C639.482004,384.055901 648.073257,389.749482 648.073257,396.154762 C648.789194,405.406832 644.493568,418.929089 631.606689,418.929089" id="Shape" fill="#1E1E1C"></path>
                <path d="M775.430373,371.057744 L774.721774,371.057744 C767.635777,369.614101 756.298181,368.170459 749.920784,366.726816 C736.457389,365.283174 728.662793,364.561353 722.993995,365.283174 C713.782199,365.283174 708.822001,391.268738 710.2392,415.088838 L710.9478,425.916157 C711.6564,445.40533 715.199398,475 721.576795,475 C727.245593,475 729.371392,463.45086 729.371392,451.901721 C728.662793,440.352581 735.04019,430.968905 742.126187,430.968905 C766.218577,430.247084 779.681972,417.254302 778.973372,396.321487 L775.430373,371.057744 Z M761.258379,410.757911 C749.920784,413.645196 737.874589,416.532481 733.62299,416.532481 C730.788592,416.532481 727.245593,409.314269 726.536993,399.208771 C725.828394,389.825096 731.497191,381.163241 737.874589,381.163241 C747.086385,381.163241 760.549779,384.772347 760.549779,397.765129 L761.258379,410.757911 Z" id="Shape" fill="#1E1E1C"></path>
                <path d="M530.783898,417.571429 C520.698661,396.142857 507.011553,374 501.24856,374 C495.485568,374 483.239208,397.571429 475.315094,419.714286 L468.111353,438.285714 C460.907612,456.857143 454.424245,478.285714 458.026116,483.285714 C458.74649,484 459.466864,484 460.187238,484 C465.229856,484 470.992849,477.571429 473.874345,469.714286 C476.755842,462.571429 487.561453,455.428571 501.24856,454.714286 C514.935668,454 532.224646,459.714286 535.106142,466.142857 C538.708013,474 545.191379,481.142857 550.233998,480.428571 C550.954372,480.428571 551.674746,479.714286 552.39512,479 C555.276617,474 547.352502,452.571429 539.428387,435.428571 L530.783898,417.571429 Z M504.130057,438.285714 C504.130057,438.285714 503.409683,438.285714 502.689309,436.857143 C500.528186,433.285714 496.205942,433.285714 493.324446,430.428571 C492.604072,429.714286 493.324446,429 494.04482,428.285714 C494.04482,427.571429 494.04482,427.571429 494.04482,426.857143 C493.324446,425.428571 492.604072,424 492.604072,422.571429 C491.883697,419.714286 492.604072,416.857143 493.324446,413.285714 C493.324446,412.571429 493.324446,411.857143 494.04482,411.142857 C494.04482,410.428571 494.765194,409.714286 494.765194,409 C494.765194,406.142857 495.485568,403.285714 498.367064,401.857143 C499.087438,401.857143 499.087438,401.142857 499.807812,401.142857 C501.24856,400.428571 502.689309,399.714286 502.689309,399.714286 C502.689309,399.714286 512.774546,402.571429 513.49492,418.285714 C514.935668,434 504.130057,438.285714 504.130057,438.285714 L504.130057,438.285714 Z" id="Shape" fill="#1E1E1C"></path>
                <path d="M504.846154,426 C504.846154,426 504.153846,426 504.846154,426 C503.461538,423.875 501.384615,423.875 500.692308,422.458333 C500.692308,422.458333 500.692308,421.75 500.692308,421.75 C500.692308,421.75 500.692308,421.75 500.692308,421.041667 C500.692308,420.333333 500,419.625 500,418.916667 C500,417.5 500,416.083333 500.692308,414.666667 C500.692308,414.666667 500.692308,413.958333 500.692308,413.958333 C500.692308,413.958333 500.692308,413.25 500.692308,413.25 C500.692308,411.833333 501.384615,410.416667 502.076923,410.416667 C502.076923,410.416667 502.769231,410.416667 502.769231,409.708333 C503.461538,409 504.153846,409 504.153846,409 C504.153846,409 508.307692,410.416667 509,416.791667 C509,423.875 504.846154,426 504.846154,426" id="Path" fill="#E2231A"></path>
                <path d="M529.575406,121 C528.150812,121 528.863109,122.425575 528.863109,122.425575 C521.027842,168.756755 459.058005,206.534487 380.705336,209.385636 C305.201856,212.236786 242.519722,182.299716 227.561485,139.532472 C227.561485,139.532472 226.849188,138.106897 225.424594,138.106897 C224,138.819685 224,140.24526 224,140.24526 C233.972158,237.897132 295.941995,302.760785 383.554524,299.909635 C473.303944,296.345698 531,223.641384 531,122.425575 C531,122.425575 531,121 529.575406,121 M436.264501,261.419116 C463.331787,234.333195 404.923434,239.322707 404.923434,239.322707 C404.923434,239.322707 396.37587,239.322707 395.663573,232.194833 C394.951276,225.066959 403.49884,224.354172 403.49884,224.354172 C476.153132,218.651873 510.343387,178.022991 510.343387,178.022991 C494.672854,238.60992 436.264501,261.419116 436.264501,261.419116" id="Shape" fill="#E2231A"></path>
                <path d="M397.337105,176.445606 L456.048978,92.2656874 C476.812932,60.163176 499.008884,44.4686149 507.600866,38.7615017 C507.600866,38.7615017 512.612855,36.6213343 510.464859,28.7740537 C508.316864,20.9267731 497.576887,-2.61506857 462.492964,0.238488 C455.332979,0.951877143 455.332979,5.232212 455.332979,5.232212 C453.184984,13.0794926 445.309001,30.9142211 411.657074,59.4497869 L310.701294,145.769873 C310.701294,145.769873 294.949328,162.891213 298.52932,178.585774 C312.13329,183.579498 334.329242,190 368.697167,190" id="Path" fill="#717070"></path>
                <path d="M378.38294,190 C371.268603,190 367,190 367,190 C394.034483,176.33858 407.551724,151.891827 407.551724,151.891827 C456.640653,81.4276584 471.580762,49.0716625 487.943739,37.5673085 C504.306715,26.0629544 510.709619,31.0961093 510.709619,31.0961093 C512.132486,36.1292642 507.863884,38.2863306 507.863884,38.2863306 L503.595281,41.1624191 C475.137931,60.5760166 454.506352,95.0890789 454.506352,95.0890789 L395.45735,181.371734 C395.45735,180.652712 390.477314,189.280978 378.38294,190" id="Path" fill="#1E1E1C"></path>
                <path d="M530,108.285706 C523.59322,86.2731046 510.067797,71.3613425 492.983051,60 C491.559322,61.4201678 489.423729,62.8403356 488,64.9705874 C508.644068,76.3319299 522.881356,91.243692 527.864407,108.99579 C527.864407,109.705874 528.576271,110.415958 529.288136,109.705874 C530,109.705874 530,108.99579 530,108.285706" id="Path" fill="#1E1E1C"></path>
                <path d="M426,36.3335202 C395.221053,31.3034763 370.168421,33.4592094 370.168421,33.4592094 C370.168421,33.4592094 238.463158,37.7706756 222,122.562845 C222,123.281422 222,124 222.715789,124 C222.715789,124 222.715789,124 223.431579,124 C224.147368,124 224.863158,123.281422 224.863158,123.281422 C235.6,79.4481824 297.157895,48.5493412 370.884211,44.237875 C387.347368,43.5192973 403.810526,43.5192973 418.842105,44.9564527 C421.705263,41.3635642 423.852632,38.4892533 426,36.3335202" id="Path" fill="#1E1E1C"></path>
            </g>
        </g>
    </g>
</svg>